{"title":"Katy Perry &amp;mdash; E.T.  Part of Me - The 54th Annual Grammy Awa","uid":7085506,"size":910100480,"categoryP":"video","categoryS":"other","magnet":"?xt=urn:btih:89fb24b488a1ac0685cd833ae74fab5926e3a171&amp;dn=Katy+Perry+%26mdash%3B+E.T.++Part+of+Me+-+The+54th+Annual+Grammy+Awa&amp;tr=udp%3A%2F%2Ftracker.openbittorrent.com%3A80&amp;tr=udp%3A%2F%2Fopen.demonii.com%3A1337&amp;tr=udp%3A%2F%2Ftracker.coppersurfer.tk%3A6969&amp;tr=udp%3A%2F%2Fexodus.desync.com%3A6969","seeders":0,"leechers":0,"uploader":null,"files":1,"time":1331168143,"description":"Format                           : MPEG-TS\nFile size                        : 868 MiB\nDuration                         : 4mn 17s\nOverall bit rate mode            : Variable\nOverall bit rate                 : 28.3 Mbps\nMaximum Overall bit rate         : 35.5 Mbps\n\nVideo\nID                               : 4113 (0x1011)\nMenu ID                          : 1 (0x1)\nFormat                           : MPEG Video\nFormat version                   : Version 2\nFormat profile                   : Main@High\nFormat settings, BVOP            : Yes\nFormat settings, Matrix          : Custom\nCodec ID                         : 2\nDuration                         : 4mn 17s\nBit rate mode                    : Variable\nBit rate                         : 26.5 Mbps\nMaximum bit rate                 : 27.2 Mbps\nWidth                            : 1 920 pixels\nHeight                           : 1 080 pixels\nDisplay aspect ratio             : 16:9\nFrame rate                       : 25.000 fps\nColor space                      : YUV\nChroma subsampling               : 4:2:0\nBit depth                        : 8 bits\nScan type                        : Interlaced\nScan order                       : Top Field First\nCompression mode                 : Lossy\nBits/(Pixel*Frame)               : 0.511\nStream size                      : 813 MiB (94%)\n\nAudio\nID                               : 4352 (0x1100)\nMenu ID                          : 1 (0x1)\nFormat                           : MPEG Audio\nFormat version                   : Version 1\nFormat profile                   : Layer 2\nCodec ID                         : 4\nDuration                         : 4mn 17s\nBit rate mode                    : Constant\nBit rate                         : 384 Kbps\nChannel(s)                       : 2 channels\nSampling rate                    : 48.0 KHz\nCompression mode                 : Lossy\nDelay relative to video          : 19ms\nStream size                      : 11.8 MiB (1%)\nLanguage                         : English\n","torrent":{"xt":"urn:btih:89fb24b488a1ac0685cd833ae74fab5926e3a171","amp;dn":"Katy+Perry+%26mdash%3B+E.T.++Part+of+Me+-+The+54th+Annual+Grammy+Awa","amp;tr":["udp%3A%2F%2Ftracker.openbittorrent.com%3A80","udp%3A%2F%2Fopen.demonii.com%3A1337","udp%3A%2F%2Ftracker.coppersurfer.tk%3A6969","udp%3A%2F%2Fexodus.desync.com%3A6969"],"infoHash":"89fb24b488a1ac0685cd833ae74fab5926e3a171","infoHashBuffer":{"type":"Buffer","data":[137,251,36,180,136,161,172,6,133,205,131,58,231,79,171,89,38,227,161,113]},"announce":[],"urlList":[]}}